<svg viewBox="0 0 20 20" fill="none" xmlns="http://www.w3.org/2000/svg" x="0" y="0"><path id="Vector_30" d="M0.16,1.492c-0.105,-0.156 -0.16,-0.344 -0.16,-0.531c0,-0.531 0.43,-0.961 0.961,-0.961h4.269c0.438,0 0.848,0.23 1.071,0.605l2.676,4.457c-1.883,0.239 -3.567,1.118 -4.821,2.418zM19.836,1.492l-3.992,5.988c-1.254,-1.3 -2.938,-2.179 -4.821,-2.418l2.676,-4.457c0.227,-0.375 0.633,-0.605 1.071,-0.605h4.269c0.531,0 0.961,0.43 0.961,0.961c0,0.187 -0.055,0.375 -0.16,0.531zM3.125,13.125c0,-3.794 3.081,-6.875 6.875,-6.875c3.794,0 6.875,3.081 6.875,6.875c0,3.794 -3.081,6.875 -6.875,6.875c-3.794,0 -6.875,-3.081 -6.875,-6.875zM10.328,9.418c-0.133,-0.273 -0.519,-0.273 -0.656,0l-0.875,1.773c-0.055,0.11 -0.156,0.184 -0.274,0.2l-1.961,0.285c-0.3,0.043 -0.417,0.41 -0.203,0.625l1.418,1.383c0.086,0.086 0.125,0.203 0.106,0.324l-0.336,1.949c-0.051,0.297 0.262,0.527 0.531,0.387l1.75,-0.922c0.106,-0.055 0.234,-0.055 0.34,0l1.75,0.922c0.27,0.14 0.582,-0.086 0.531,-0.387l-0.336,-1.949c-0.019,-0.117 0.02,-0.238 0.106,-0.324l1.418,-1.383c0.218,-0.211 0.097,-0.578 -0.203,-0.625l-1.957,-0.285c-0.118,-0.016 -0.223,-0.094 -0.274,-0.2z" fill="currentColor"/></svg>