<svg viewBox="0 0 24 22.5" fill="none" xmlns="http://www.w3.org/2000/svg" x="0" y="0"><path id="Vector_16" d="M8.625,2.25h6.75c0.206,0 0.375,0.17 0.375,0.38v1.87h-7.5v-1.87c0,-0.21 0.169,-0.38 0.375,-0.38zM6,2.63v1.87h-3c-1.655,0 -3,1.35 -3,3v4.5h9h6h9v-4.5c0,-1.65 -1.345,-3 -3,-3h-3v-1.87c0,-1.45 -1.177,-2.63 -2.625,-2.63h-6.75c-1.448,0 -2.625,1.18 -2.625,2.63zM24,13.5h-9v1.5c0,0.83 -0.67,1.5 -1.5,1.5h-3c-0.83,0 -1.5,-0.67 -1.5,-1.5v-1.5h-9v6c0,1.65 1.345,3 3,3h18c1.655,0 3,-1.35 3,-3z" fill="currentColor"/></svg>