<svg viewBox="0 0 11 16" fill="none" xmlns="http://www.w3.org/2000/svg" xmlns:xlink="http://www.w3.org/1999/xlink" x="0" y="0"><path id="Vector_6" d="M8,12c0.3,-1 0.922,-1.85 1.538,-2.69c0.162,-0.23 0.325,-0.45 0.481,-0.67c0.618,-0.89 0.981,-1.97 0.981,-3.14c0,-3.04 -2.462,-5.5 -5.5,-5.5c-3.037,0 -5.5,2.46 -5.5,5.5c0,1.17 0.363,2.25 0.981,3.13c0.157,0.23 0.319,0.45 0.481,0.67c0.619,0.85 1.241,1.7 1.538,2.7h5zM5.5,16c1.381,0 2.5,-1.12 2.5,-2.5v-0.5h-5v0.5c0,1.38 1.119,2.5 2.5,2.5zM3,5.5c0,0.28 -0.225,0.5 -0.5,0.5l-0.5,-0.22v-0.28c0,-1.93 1.566,-3.5 3.5,-3.5c0.275,0 0.5,0.22 0.5,0.5l-0.225,0.5h-0.275c-1.381,0 -2.5,1.12 -2.5,2.5z" fill="currentColor"/></svg>