<svg viewBox="0 0 10.5 12" fill="none" xmlns="http://www.w3.org/2000/svg" xmlns:xlink="http://www.w3.org/1999/xlink" x="0" y="0"><path id="Vector_8" d="M3.562,0.56c0,-0.31 -0.25,-0.56 -0.562,-0.56c-0.312,0 -0.562,0.25 -0.562,0.56v0.94h-0.938c-0.827,0 -1.5,0.67 -1.5,1.5v0.38v1.12v6c0,0.83 0.673,1.5 1.5,1.5h7.5c0.827,0 1.5,-0.67 1.5,-1.5v-6v-1.12v-0.38c0,-0.83 -0.673,-1.5 -1.5,-1.5h-0.938v-0.94c0,-0.31 -0.25,-0.56 -0.562,-0.56c-0.312,0 -0.562,0.25 -0.562,0.56v0.94h-3.376zM1.125,4.5h8.25v6c0,0.21 -0.169,0.38 -0.375,0.38h-7.5c-0.206,0 -0.375,-0.17 -0.375,-0.38z" fill="currentColor"/></svg>