<svg viewBox="0 0 12.25 14" fill="none" xmlns="http://www.w3.org/2000/svg" xmlns:xlink="http://www.w3.org/1999/xlink" x="0" y="0"><path id="Vector_2" d="M4.1562,0.656c0,-0.363 -0.2925,-0.656 -0.6562,-0.656c-0.3637,0 -0.6562,0.293 -0.6562,0.656v1.094h-1.0938c-0.9652,0 -1.75,0.785 -1.75,1.75v0.438v1.312v7c0,0.965 0.7848,1.75 1.75,1.75h8.75c0.9652,0 1.75,-0.785 1.75,-1.75v-7v-1.312v-0.438c0,-0.965 -0.7848,-1.75 -1.75,-1.75h-1.0938v-1.094c0,-0.363 -0.2925,-0.656 -0.6562,-0.656c-0.3637,0 -0.6562,0.293 -0.6562,0.656v1.094h-3.9376zM1.3125,5.25h9.625v7c0,0.241 -0.1969,0.438 -0.4375,0.438h-8.75c-0.2406,0 -0.4375,-0.197 -0.4375,-0.438z" fill="currentColor"/></svg>