<svg viewBox="0 0 25.4029 24" fill="none" xmlns="http://www.w3.org/2000/svg" x="0" y="0"><path id="Vector_6" d="M12.7498,11.25v-10.47c0,-0.42 0.328,-0.78 0.75,-0.78c5.799,0 10.5,4.7 10.5,10.5c0,0.42 -0.356,0.75 -0.778,0.75zM-0.0002,12.75c0,-5.69 4.224,-10.39 9.703,-11.14c0.432,-0.06 0.797,0.28 0.797,0.72v11.17l7.336,7.34c0.314,0.31 0.291,0.83 -0.07,1.08c-1.838,1.31 -4.088,2.08 -6.516,2.08c-6.211,0 -11.25,-5.03 -11.25,-11.25zM24.6748,13.5c0.436,0 0.778,0.37 0.722,0.8c-0.361,2.62 -1.622,4.95 -3.464,6.67c-0.281,0.26 -0.722,0.24 -0.994,-0.04l-7.439,-7.43z" fill="currentColor"/></svg>