<svg viewBox="0 0 24 24" fill="none" xmlns="http://www.w3.org/2000/svg" x="0" y="0"><path id="Vector_11" d="M8.2499,1.12c0,-0.62 -0.5,-1.12 -1.12,-1.12c-0.63,0 -1.13,0.5 -1.13,1.12v1.88c-1.65,0 -3,1.35 -3,3h-1.87c-0.63,0 -1.13,0.5 -1.13,1.12c0,0.63 0.5,1.13 1.13,1.13h1.87v2.63h-1.87c-0.63,0 -1.13,0.5 -1.13,1.12c0,0.62 0.5,1.12 1.13,1.12h1.87v2.63h-1.87c-0.63,0 -1.13,0.5 -1.13,1.13c0,0.62 0.5,1.12 1.13,1.12h1.87c0,1.65 1.35,3 3,3v1.88c0,0.62 0.5,1.12 1.13,1.12c0.62,0 1.12,-0.5 1.12,-1.12v-1.88h2.63v1.88c0,0.62 0.5,1.12 1.12,1.12c0.62,0 1.13,-0.5 1.13,-1.12v-1.88h2.62v1.88c0,0.62 0.5,1.12 1.13,1.12c0.62,0 1.12,-0.5 1.12,-1.12v-1.88c1.65,0 3,-1.35 3,-3h1.88c0.62,0 1.12,-0.5 1.12,-1.12c0,-0.63 -0.5,-1.13 -1.12,-1.13h-1.88v-2.63h1.88c0.62,0 1.12,-0.5 1.12,-1.12c0,-0.62 -0.5,-1.12 -1.12,-1.12h-1.88v-2.63h1.88c0.62,0 1.12,-0.5 1.12,-1.13c0,-0.62 -0.5,-1.12 -1.12,-1.12h-1.88c0,-1.65 -1.35,-3 -3,-3v-1.88c0,-0.62 -0.5,-1.12 -1.12,-1.12c-0.63,0 -1.13,0.5 -1.13,1.12v1.88h-2.62v-1.88c0,-0.62 -0.51,-1.12 -1.13,-1.12c-0.62,0 -1.12,0.5 -1.12,1.12v1.88h-2.63zM7.4999,6h9c0.83,0 1.5,0.67 1.5,1.5v9c0,0.83 -0.67,1.5 -1.5,1.5h-9c-0.83,0 -1.5,-0.67 -1.5,-1.5v-9c0,-0.83 0.67,-1.5 1.5,-1.5zM16.4999,7.5h-9v9h9z" fill="currentColor"/></svg>