<svg viewBox="0 0 14 14" fill="none" xmlns="http://www.w3.org/2000/svg" xmlns:xlink="http://www.w3.org/1999/xlink" x="0" y="0"><path id="Vector_3" d="M12.688,7c0,3.139 -2.549,5.688 -5.688,5.688c-3.139,0 -5.687,-2.549 -5.687,-5.688c0,-3.139 2.548,-5.688 5.687,-5.688c3.139,0 5.688,2.549 5.688,5.688zM0,7c0,3.863 3.137,7 7,7c3.863,0 7,-3.137 7,-7c0,-3.863 -3.137,-7 -7,-7c-3.863,0 -7,3.137 -7,7zM6.344,3.281v3.719c0,0.219 0.109,0.424 0.292,0.547l2.625,1.75c0.301,0.202 0.709,0.12 0.911,-0.183l0.12,-0.709l-0.303,-0.202l-2.333,-1.553v-3.369c0,-0.363 -0.292,-0.656 -0.656,-0.656l-0.656,0.293z" fill="currentColor"/></svg>