<svg viewBox="0 0 24.998 20.0042" fill="none" xmlns="http://www.w3.org/2000/svg" xmlns:xlink="http://www.w3.org/1999/xlink" x="0" y="0"><path id="Vector_3" d="M15.343,0.0522c-0.664,-0.19 -1.356,0.19 -1.547,0.86l-5,17.5c-0.192,0.66 0.195,1.35 0.859,1.54c0.664,0.19 1.356,-0.19 1.547,-0.86l5,-17.5c0.192,-0.66 -0.195,-1.35 -0.859,-1.54zM18.491,4.7422c-0.488,0.49 -0.488,1.28 0,1.77l3.488,3.49l-3.492,3.49c-0.488,0.49 -0.488,1.28 0,1.77l1.282,0.49l0.488,-0.49l4.375,-4.37c0.488,-0.49 0.488,-1.28 0,-1.77l-4.375,-4.38c-0.488,-0.49 -1.281,-0.49 -1.77,0zM6.511,4.7422c-0.489,-0.49 -1.282,-0.49 -1.77,0l-4.375,4.37c-0.488,0.49 -0.488,1.28 0,1.77l4.375,4.38c0.488,0.49 1.281,0.49 1.77,0l0.488,-1.28l-0.488,-0.49l-3.492,-3.49l3.492,-3.49c0.488,-0.49 0.488,-1.28 0,-1.77z" fill="currentColor"/></svg>