<svg viewBox="0 0 25 17.5" fill="none" xmlns="http://www.w3.org/2000/svg" xmlns:xlink="http://www.w3.org/1999/xlink" x="0" y="0"><path id="Vector_4" d="M2.5,2.5c0,-1.38 1.121,-2.5 2.5,-2.5h15c1.379,0 2.5,1.12 2.5,2.5v10h-2.5v-10h-15v10h-2.5zM0,14.5c0,-0.41 0.336,-0.75 0.75,-0.75h23.5c0.414,0 0.75,0.34 0.75,0.75c0,1.66 -1.344,3 -3,3h-19c-1.656,0 -3,-1.34 -3,-3zM10.977,6.91l-1.211,1.22l1.211,1.21c0.367,0.36 0.367,0.96 0,1.32l-0.961,0.37l-0.364,-0.37l-1.875,-1.87c-0.367,-0.37 -0.367,-0.97 0,-1.33l1.875,-1.87c0.368,-0.37 0.961,-0.37 1.325,0l0.367,0.96l-0.367,0.36zM15.352,5.59l1.875,1.87c0.367,0.37 0.367,0.96 0,1.33l-1.875,1.87c-0.368,0.37 -0.961,0.37 -1.325,0l-0.367,-0.96l0.367,-0.36l1.211,-1.21l-1.211,-1.22c-0.367,-0.36 -0.367,-0.96 0,-1.32l0.961,-0.37l0.364,0.37z" fill="currentColor"/></svg>