<svg viewBox="0 0 18 24" fill="none" xmlns="http://www.w3.org/2000/svg" x="0" y="0"><path id="Vector_38" d="M3,0c-1.65,0 -3,1.35 -3,3v18c0,1.65 1.35,3 3,3h12c1.65,0 3,-1.35 3,-3v-13.5h-6c-0.83,0 -1.5,-0.67 -1.5,-1.5v-6zM12,0v6h6zM5.25,12h7.5c0.41,0 0.75,0.34 0.75,0.75l-0.34,0.75h-0.41h-7.5c-0.41,0 -0.75,-0.34 -0.75,-0.75l0.34,-0.75zM5.25,15h7.5c0.41,0 0.75,0.34 0.75,0.75l-0.34,0.75h-0.41h-7.5c-0.41,0 -0.75,-0.34 -0.75,-0.75l0.34,-0.75zM5.25,18h7.5c0.41,0 0.75,0.34 0.75,0.75l-0.34,0.75h-0.41h-7.5c-0.41,0 -0.75,-0.34 -0.75,-0.75l0.34,-0.75z" fill="currentColor"/></svg>