<svg viewBox="0 0 12 9" fill="none" xmlns="http://www.w3.org/2000/svg" xmlns:xlink="http://www.w3.org/1999/xlink" x="0" y="0"><path id="Vector_17" d="M1.125,0c-0.6211,0 -1.125,0.5039 -1.125,1.125c0,0.3539 0.1664,0.6867 0.45,0.9l5.1,3.825c0.2672,0.1992 0.6328,0.1992 0.9,0l5.1,-3.825c0.2836,-0.2133 0.45,-0.5461 0.45,-0.9c0,-0.6211 -0.5039,-1.125 -1.125,-1.125h-9.75zM0,2.625v4.875c0,0.8273 0.6727,1.5 1.5,1.5h9c0.8273,0 1.5,-0.6727 1.5,-1.5v-4.875l-5.1,3.825c-0.5344,0.4008 -1.2656,0.4008 -1.8,0z" fill="currentColor"/></svg>