<svg viewBox="0 0 16.5 24" fill="none" xmlns="http://www.w3.org/2000/svg" x="0" y="0"><path id="Vector_35" d="M12,18c0.45,-1.5 1.3828,-2.77 2.3062,-4.04c0.2438,-0.33 0.4875,-0.67 0.7219,-1c0.9282,-1.34 1.4719,-2.96 1.4719,-4.71c0,-4.56 -3.6938,-8.25 -8.25,-8.25c-4.5563,0 -8.25,3.69 -8.25,8.25c0,1.75 0.5437,3.37 1.4719,4.7c0.2343,0.34 0.4781,0.67 0.7218,1c0.9282,1.27 1.861,2.55 2.3063,4.05h7.5zM8.25,24c2.0719,0 3.75,-1.68 3.75,-3.75v-0.75h-7.5v0.75c0,2.07 1.6781,3.75 3.75,3.75zM4.5,8.25c0,0.41 -0.3375,0.75 -0.75,0.75l-0.75,-0.34v-0.41c0,-2.9 2.3484,-5.25 5.25,-5.25c0.4125,0 0.75,0.34 0.75,0.75l-0.3375,0.75h-0.4125c-2.0719,0 -3.75,1.68 -3.75,3.75z" fill="currentColor"/></svg>