<svg viewBox="0 0 14 13.9997" fill="none" xmlns="http://www.w3.org/2000/svg" xmlns:xlink="http://www.w3.org/1999/xlink" x="0" y="0"><path id="Vector_11" d="M3.134,13.9992h-2.903v-9.35h2.903zM1.681,3.3792c-0.928,0 -1.681,-0.77 -1.681,-1.7c0,-0.93 0.753,-1.68 1.681,-1.68c0.928,0 1.681,0.75 1.681,1.68c0,0.93 -0.753,1.7 -1.681,1.7zM13.997,13.9992h-2.896v-4.55c0,-1.08 -0.022,-2.47 -1.509,-2.47c-1.51,0 -1.741,1.17 -1.741,2.39v4.63h-2.899v-9.35h2.784v1.28h0.04c0.388,-0.74 1.334,-1.51 2.747,-1.51c2.937,0 3.477,1.93 3.477,4.45v5.13z" fill="currentColor"/></svg>