<svg viewBox="0 0 20 20.0022" fill="none" xmlns="http://www.w3.org/2000/svg" xmlns:xlink="http://www.w3.org/1999/xlink" x="0" y="0"><path id="Vector_5" d="M18.75,1.2522c0,-0.5 -0.3,-0.96 -0.77,-1.16c-0.47,-0.19 -1.01,-0.08 -1.37,0.27l-1.7,1.71c-1.87,1.88 -4.42,2.93 -7.07,2.93h-0.34h-1.25h-3.75c-1.38,0 -2.5,1.12 -2.5,2.5v3.75c0,1.38 1.12,2.5 2.5,2.5v5c0,0.69 0.56,1.25 1.25,1.25h2.5c0.69,0 1.25,-0.56 1.25,-1.25v-5h0.34c2.65,0 5.2,1.05 7.07,2.93l1.7,1.7c0.36,0.36 0.9,0.47 1.37,0.27c0.47,-0.19 0.77,-0.65 0.77,-1.15v-5.77c0.73,-0.34 1.25,-1.27 1.25,-2.36c0,-1.08 -0.52,-2.01 -1.25,-2.35zM16.25,4.2522v5.12v5.13c-2.3,-2.09 -5.29,-3.25 -8.41,-3.25h-0.34v-3.75h0.34c3.12,0 6.11,-1.16 8.41,-3.25z" fill="currentColor"/></svg>