<svg viewBox="0 0 12.0005 12.0005" fill="none" xmlns="http://www.w3.org/2000/svg" xmlns:xlink="http://www.w3.org/1999/xlink" x="0" y="0"><path id="Vector_18" d="M3.865,0.577c-0.181,-0.4359 -0.656,-0.6679 -1.111,-0.5437l-2.063,0.5625c-0.407,0.1125 -0.691,0.4828 -0.691,0.9047c0,5.7984 4.702,10.5 10.5,10.5c0.422,0 0.792,-0.2836 0.905,-0.6914l0.562,-2.0625c0.124,-0.4547 -0.108,-0.9305 -0.544,-1.111l-2.25,-0.9375c-0.382,-0.1593 -0.825,-0.0492 -1.085,0.2719l-0.947,1.1555c-1.65,-0.7805 -2.986,-2.1164 -3.766,-3.7664l1.155,-0.9446c0.322,-0.2625 0.432,-0.7031 0.272,-1.0851l-0.937,-2.25z" fill="currentColor"/></svg>