<svg viewBox="0 0 14.0006 14.0006" fill="none" xmlns="http://www.w3.org/2000/svg" xmlns:xlink="http://www.w3.org/1999/xlink" x="0" y="0"><path id="Vector_15" d="M4.51,0.6705c-0.21,-0.51 -0.77,-0.78 -1.3,-0.63l-2.4,0.65c-0.48,0.14 -0.81,0.57 -0.81,1.06c0,6.76 5.49,12.25 12.25,12.25c0.49,0 0.92,-0.33 1.06,-0.81l0.65,-2.4c0.15,-0.53 -0.12,-1.09 -0.63,-1.3l-2.63,-1.09c-0.44,-0.19 -0.96,-0.06 -1.26,0.31l-1.11,1.35c-1.92,-0.91 -3.48,-2.47 -4.39,-4.39l1.35,-1.1c0.37,-0.31 0.5,-0.82 0.31,-1.27l-1.09,-2.62z" fill="currentColor"/></svg>