<svg viewBox="0 0 21.1691 20" fill="none" xmlns="http://www.w3.org/2000/svg" xmlns:xlink="http://www.w3.org/1999/xlink" x="0" y="0"><path id="Vector_5" d="M10.625,9.38v-8.73c0,-0.35 0.2734,-0.65 0.625,-0.65c4.832,0 8.75,3.92 8.75,8.75c0,0.35 -0.297,0.63 -0.648,0.63zM0,10.62c0,-4.73 3.5195,-8.66 8.0859,-9.28c0.3594,-0.05 0.6641,0.24 0.6641,0.6v9.31l6.1133,6.11c0.2617,0.26 0.2417,0.69 -0.0586,0.91c-1.5313,1.09 -3.4063,1.73 -5.4297,1.73c-5.1758,0 -9.375,-4.2 -9.375,-9.38zM20.562,11.25c0.364,0 0.649,0.3 0.602,0.66c-0.301,2.19 -1.352,4.13 -2.887,5.56c-0.234,0.22 -0.601,0.21 -0.828,-0.02l-6.199,-6.2z" fill="currentColor"/></svg>