<svg viewBox="0 0 31.5 22.5" fill="none" xmlns="http://www.w3.org/2000/svg" xmlns:xlink="http://www.w3.org/1999/xlink" x="0" y="0"><path id="Vector_7" d="M31.5,14.06c0,4.66 -3.776,8.44 -8.438,8.44h-0.562c-1.245,0 -2.25,-1.01 -2.25,-2.25c0,-1.24 1.005,-2.25 2.25,-2.25h0.562c2.173,0 3.938,-1.76 3.938,-3.94v-0.56h-4.5c-2.482,0 -4.5,-2.02 -4.5,-4.5v-4.5c0,-2.48 2.018,-4.5 4.5,-4.5h4.5c2.482,0 4.5,2.02 4.5,4.5v2.25v2.25zM13.5,14.06c0,4.66 -3.776,8.44 -8.438,8.44h-0.562c-1.245,0 -2.25,-1.01 -2.25,-2.25l1.005,-2.25h1.245h0.562c2.173,0 3.938,-1.76 3.938,-3.94v-0.56h-4.5c-2.482,0 -4.5,-2.02 -4.5,-4.5v-4.5c0,-2.48 2.018,-4.5 4.5,-4.5h4.5c2.482,0 4.5,2.02 4.5,4.5v2.25v2.25z" fill="currentColor"/></svg>