<svg viewBox="0 0 20.001 20.0015" fill="none" xmlns="http://www.w3.org/2000/svg" xmlns:xlink="http://www.w3.org/1999/xlink" x="0" y="0"><path id="Vector_7" d="M6.1201,15.039l-1.207,-1.21c-0.332,-0.33 -0.45,-0.81 -0.301,-1.26c0.117,-0.35 0.273,-0.8 0.461,-1.32h-4.133c-0.336,0 -0.649,-0.18 -0.817,-0.47c-0.167,-0.3 -0.164,-0.65 0.008,-0.94l2.051,-3.46c0.508,-0.86 1.426,-1.38 2.418,-1.38h3.215c0.094,-0.16 0.187,-0.3 0.281,-0.44c3.203,-4.72 7.963,-4.88 10.813,-4.35c0.45,0.08 0.8,0.43 0.89,0.89c0.52,2.85 0.36,7.61 -4.36,10.81c-0.13,0.09 -0.28,0.18 -0.44,0.28v3.21c0,0.99 -0.52,1.92 -1.38,2.42l-3.45,2.05c-0.29,0.17 -0.651,0.18 -0.944,0.01c-0.293,-0.17 -0.473,-0.48 -0.473,-0.82v-4.18c-0.55,0.19 -1.031,0.34 -1.394,0.46c-0.438,0.14 -0.914,0.02 -1.242,-0.3zM14.9991,6.559c0.87,0 1.57,-0.7 1.57,-1.56c0,-0.86 -0.7,-1.56 -1.57,-1.56c-0.86,0 -1.56,0.7 -1.56,1.56c0,0.86 0.7,1.56 1.56,1.56z" fill="currentColor"/></svg>