<svg viewBox="0 0 23.9988 24.0035" fill="none" xmlns="http://www.w3.org/2000/svg" x="0" y="0"><path id="Vector" d="M19.5,9.75c0,2.15 -0.6984,4.14 -1.875,5.75l5.934,5.94c0.586,0.59 0.586,1.54 0,2.12c-0.5856,0.59 -1.5371,0.59 -2.1231,0l-5.9343,-5.94c-1.6125,1.19 -3.6,1.88 -5.7516,1.88c-5.3859,0 -9.75,-4.36 -9.75,-9.75c0,-5.39 4.3641,-9.75 9.75,-9.75c0,0 9.75,4.36 9.75,9.75zM4.875,10.12v3c0,0.63 0.5016,1.13 1.125,1.13l1.125,-0.5v-0.63v-3c0,-0.62 -0.5016,-1.12 -1.125,-1.12l-1.125,0.5zM8.625,5.62v7.5c0,0.63 0.5016,1.13 1.125,1.13l1.125,-0.5v-0.63v-7.5c0,-0.62 -0.5016,-1.12 -1.125,-1.12l-1.125,0.5zM12.375,8.62v4.5c0,0.63 0.5016,1.13 1.125,1.13l1.125,-0.5v-0.63v-4.5c0,-0.62 -0.5016,-1.12 -1.125,-1.12l-1.125,0.5z" fill="currentColor"/></svg>