<svg viewBox="0 0 15.9998 16.0033" fill="none" xmlns="http://www.w3.org/2000/svg" xmlns:xlink="http://www.w3.org/1999/xlink" x="0" y="0"><path id="Vector_10" d="M15.5663,0.18c0.315,0.21 0.481,0.59 0.421,0.97l-2,13c-0.046,0.3 -0.231,0.57 -0.5,0.72c-0.268,0.15 -0.59,0.17 -0.875,0.05l-3.737,-1.55l-2.141,2.31c-0.278,0.3 -0.715,0.4 -1.1,0.25c-0.384,-0.15 -0.634,-0.52 -0.634,-0.93v-2.61c0,-0.13 0.047,-0.25 0.131,-0.34l5.238,-5.71c0.181,-0.2 0.175,-0.5 -0.013,-0.69c-0.187,-0.19 -0.49,-0.2 -0.687,-0.02l-6.357,5.65l-2.759,-1.39c-0.331,-0.16 -0.544,-0.49 -0.553,-0.86c-0.009,-0.37 0.184,-0.71 0.503,-0.9l14,-8c0.334,-0.19 0.747,-0.17 1.063,0.05z" fill="currentColor"/></svg>