<svg viewBox="0 0 20 17.5" fill="none" xmlns="http://www.w3.org/2000/svg" xmlns:xlink="http://www.w3.org/1999/xlink" x="0" y="0"><path id="Vector_2" d="M2.5,0c-1.379,0 -2.5,1.12 -2.5,2.5v2.5c0,1.38 1.121,2.5 2.5,2.5h15c1.379,0 2.5,-1.12 2.5,-2.5v-2.5c0,-1.38 -1.121,-2.5 -2.5,-2.5zM13.438,2.81c0.517,0 0.937,0.42 0.937,0.94c0,0.52 -0.42,0.94 -0.937,0.94c-0.518,0 -0.938,-0.42 -0.938,-0.94c0,-0.52 0.42,-0.94 0.938,-0.94zM15.312,3.75c0,-0.52 0.421,-0.94 0.938,-0.94c0.517,0 0.938,0.42 0.938,0.94c0,0.52 -0.421,0.94 -0.938,0.94c-0.517,0 -0.938,-0.42 -0.938,-0.94zM2.5,10c-1.379,0 -2.5,1.12 -2.5,2.5v2.5c0,1.38 1.121,2.5 2.5,2.5h15c1.379,0 2.5,-1.12 2.5,-2.5v-2.5c0,-1.38 -1.121,-2.5 -2.5,-2.5zM13.438,12.81c0.517,0 0.937,0.42 0.937,0.94c0,0.52 -0.42,0.94 -0.937,0.94c-0.518,0 -0.938,-0.42 -0.938,-0.94c0,-0.52 0.42,-0.94 0.938,-0.94zM15.625,13.75c0,-0.52 0.42,-0.94 0.937,-0.94c0.518,0 0.938,0.42 0.938,0.94c0,0.52 -0.42,0.94 -0.938,0.94c-0.517,0 -0.937,-0.42 -0.937,-0.94z" fill="currentColor"/></svg>