<svg viewBox="0 0 62 12" fill="none" xmlns="http://www.w3.org/2000/svg" xmlns:xlink="http://www.w3.org/1999/xlink" x="0" y="0"><g id="Container_83">
<g id="Link_22">
<g id="SVG_19">
<path id="Vector_19" d="M2.35,10.5h-2.18v-7.0101h2.18zM1.26,2.5336c-0.7,0 -1.26,-0.5766 -1.26,-1.2727c0,-0.6958 0.56,-1.2607 1.26,-1.2607c0.7,0 1.26,0.5649 1.26,1.2607c0,0.6961 -0.56,1.2727 -1.26,1.2727zM10.5,10.5h-2.17v-3.4125c0,-0.8133 -0.02,-1.8562 -1.14,-1.8562c-1.13,0 -1.3,0.8836 -1.3,1.7976v3.4711h-2.18v-7.0101h2.09v0.9562h0.03c0.29,-0.5508 1,-1.132 2.06,-1.132c2.2,0 2.61,1.4508 2.61,3.3351v3.8508z" fill="currentColor"/>
</g>
</g>
<g id="Link:margin_2">
<g id="Link_23">
<g id="SVG_20">
<path id="Vector_20" d="M37.27,3.5558c0,0.1066 0,0.2132 0,0.3198c0,3.2513 -2.47,6.9975 -6.99,6.9975c-1.4,0 -2.69,-0.4036 -3.78,-1.1041c0.2,0.0229 0.39,0.0305 0.59,0.0305c1.15,0 2.21,-0.3883 3.06,-1.0508c-1.08,-0.0228 -1.99,-0.7309 -2.3,-1.7056c0.15,0.0229 0.3,0.0381 0.46,0.0381c0.22,0 0.44,-0.0305 0.65,-0.0838c-1.13,-0.2284 -1.97,-1.2182 -1.97,-2.4137v-0.0304c0.32,0.1827 0.71,0.2969 1.11,0.3122c-0.66,-0.4417 -1.1,-1.1955 -1.1,-2.0483c0,-0.4568 0.12,-0.8756 0.34,-1.2411c1.21,1.4924 3.03,2.467 5.07,2.5736c-0.04,-0.1827 -0.06,-0.3731 -0.06,-0.5634c0,-1.3554 1.09,-2.4594 2.46,-2.4594c0.71,0 1.34,0.2969 1.79,0.7766c0.56,-0.1066 1.09,-0.3121 1.56,-0.5939c-0.18,0.5711 -0.57,1.0508 -1.08,1.3554c0.5,-0.0533 0.98,-0.1904 1.42,-0.3807c-0.34,0.4872 -0.75,0.9212 -1.23,1.2715z" fill="currentColor"/>
</g>
</g>
</g>
<g id="Link:margin_3">
<g id="Link_24">
<g id="SVG_21">
<path id="Vector_21" d="M61.04,6.75l0.34,-2.1717h-2.09v-1.4093c0,-0.5942 0.29,-1.1733 1.23,-1.1733h0.94v-1.849c0,-0.8219 -0.86,-0.1467 -1.68,-0.1467c-1.71,0 -2.84,1.0402 -2.84,2.9231v1.6552h-1.9v2.1717h1.9v5.25h2.35v-5.25z" fill="currentColor"/>
</g>
</g>
</g>
</g></svg>