<svg viewBox="0 0 12.3763 12.0013" fill="none" xmlns="http://www.w3.org/2000/svg" xmlns:xlink="http://www.w3.org/1999/xlink" x="0" y="0"><path id="Vector_3" d="M6.8611,0.42c-0.124,-0.26 -0.386,-0.42 -0.675,-0.42c-0.288,0 -0.548,0.16 -0.675,0.42l-1.507,3.1l-3.365,0.5c-0.282,0.04 -0.516,0.24 -0.603,0.51c-0.086,0.27 -0.016,0.57 0.185,0.76l2.443,2.42l-0.577,3.42c-0.047,0.28 0.07,0.56 0.302,0.73c0.233,0.17 0.54,0.19 0.793,0.05l3.007,-1.6l3.007,1.6c0.253,0.14 0.56,0.12 0.792,-0.05c0.232,-0.17 0.349,-0.45 0.302,-0.73l-0.579,-3.42l2.443,-2.42c0.201,-0.19 0.274,-0.49 0.185,-0.76c-0.089,-0.27 -0.321,-0.47 -0.603,-0.51l-3.368,-0.5z" fill="currentColor"/></svg>