<svg viewBox="0 0 19.9969 16" fill="none" xmlns="http://www.w3.org/2000/svg" xmlns:xlink="http://www.w3.org/1999/xlink" x="0" y="0"><path id="Vector_7" d="M4.5,5c1.38,0 2.5,-1.12 2.5,-2.5c0,-1.38 -1.12,-2.5 -2.5,-2.5c-1.38,0 -2.5,1.12 -2.5,2.5c0,1.38 1.12,2.5 2.5,2.5zM16,5c1.38,0 2.5,-1.12 2.5,-2.5c0,-1.38 -1.12,-2.5 -2.5,-2.5c-1.38,0 -2.5,1.12 -2.5,2.5c0,1.38 1.12,2.5 2.5,2.5zM0,9.33c0,0.37 0.3,0.67 0.67,0.67h6.66c0.01,0 0.02,0 0.03,0c-0.84,-0.73 -1.36,-1.81 -1.36,-3c0,-0.24 0.03,-0.47 0.06,-0.7c-0.42,-0.19 -0.89,-0.3 -1.39,-0.3h-1.34c-1.84,0 -3.33,1.49 -3.33,3.33zM10,10c0.75,0 1.43,-0.27 1.96,-0.73c0.08,-0.11 0.16,-0.23 0.25,-0.33c0.08,-0.11 0.18,-0.19 0.28,-0.26c0.32,-0.48 0.51,-1.06 0.51,-1.68c0,-1.66 -1.34,-3 -3,-3l-3,1.34v1.66l1.34,3zM12.04,11.88c-0.32,-0.18 -0.56,-0.51 -0.65,-0.88h-3.22c-2.3,0 -4.17,1.87 -4.17,4.17c0,0.46 0.37,0.83 0.83,0.83h9.4c-0.07,-0.16 -0.11,-0.34 -0.11,-0.51v-0.1c-0.04,-0.02 -0.08,-0.04 -0.12,-0.07l-0.08,0.05c-0.53,0.3 -1.27,0.25 -1.71,-0.3c-0.14,-0.18 -0.27,-0.36 -0.39,-0.55v-0.01v-0.01l-0.08,-0.13v0l-0.01,-0.01c-0.1,-0.19 -0.2,-0.39 -0.28,-0.6c-0.25,-0.66 0.07,-1.33 0.6,-1.63l0.08,-0.05c0,-0.03 0,-0.05 0,-0.07v-0.05v-0.03l-0.08,-0.04zM16.67,6h-1.34c-0.49,0 -0.96,0.11 -1.39,0.3c0.04,0.23 0.06,0.46 0.06,0.7c0,0.54 -0.11,1.06 -0.3,1.53c0.07,0.03 0.15,0.06 0.22,0.1l0.08,0.05c0.04,-0.02 0.08,-0.05 0.12,-0.07v-0.09c0,-0.61 0.42,-1.23 1.12,-1.34c0.25,-0.03 0.5,-0.05 0.76,-0.05l0.51,0.01l0.25,0.04c0.7,0.11 1.12,0.73 1.12,1.34v0.09c0.04,0.02 0.08,0.05 0.12,0.07l0.08,-0.05c0.53,-0.3 1.27,-0.25 1.71,0.31c0.07,0.08 0.14,0.18 0.21,0.27c-0.07,-1.78 -1.53,-3.21 -3.33,-3.21zM19.52,11.12c0.2,-0.11 0.3,-0.35 0.21,-0.56c-0.06,-0.17 -0.14,-0.34 -0.23,-0.5l-0.07,-0.12c-0.1,-0.16 -0.2,-0.31 -0.32,-0.46c-0.14,-0.17 -0.4,-0.21 -0.59,-0.09l-0.57,0.33c-0.28,-0.24 -0.6,-0.43 -0.95,-0.55v-0.66c0,-0.23 -0.15,-0.43 -0.38,-0.46c-0.2,-0.03 -0.41,-0.05 -0.62,-0.05l-0.42,0.02l-0.2,0.03c-0.23,0.03 -0.38,0.23 -0.38,0.46v0.66c-0.35,0.12 -0.67,0.31 -0.95,0.55l-0.57,-0.33c-0.2,-0.11 -0.45,-0.08 -0.59,0.09c-0.12,0.15 -0.22,0.3 -0.32,0.46l-0.07,0.12c-0.09,0.16 -0.17,0.33 -0.23,0.5c-0.09,0.21 0.01,0.45 0.21,0.56l0.57,0.33c-0.03,0.18 -0.05,0.36 -0.05,0.55l0.02,0.37l0.03,0.17l-0.57,0.33c-0.2,0.11 -0.3,0.35 -0.21,0.56c0.06,0.17 0.14,0.34 0.23,0.5l0.07,0.12c0.1,0.16 0.2,0.31 0.32,0.46c0.14,0.17 0.39,0.21 0.59,0.09l0.57,-0.32c0.28,0.24 0.6,0.43 0.95,0.55v0.66c0,0.23 0.15,0.43 0.38,0.46c0.2,0.03 0.41,0.05 0.62,0.05l0.42,-0.02l0.2,-0.03c0.23,-0.03 0.38,-0.23 0.38,-0.46v-0.66c0.35,-0.12 0.67,-0.31 0.95,-0.55l0.57,0.33c0.2,0.11 0.45,0.08 0.59,-0.09c0.12,-0.15 0.22,-0.3 0.32,-0.46l0.07,-0.13c0.09,-0.16 0.17,-0.32 0.23,-0.49c0.09,-0.21 -0.01,-0.45 -0.21,-0.56l-0.57,-0.33c0.03,-0.18 0.05,-0.36 0.05,-0.55l-0.02,-0.37l-0.03,-0.18l0.57,-0.32zM14.75,12c0,-0.69 0.56,-1.25 1.25,-1.25c0.69,0 1.25,0.56 1.25,1.25c0,0.69 -0.56,1.25 -1.25,1.25c-0.69,0 -1.25,-0.56 -1.25,-1.25z" fill="currentColor"/></svg>