<svg viewBox="0 0 16 14" fill="none" xmlns="http://www.w3.org/2000/svg" xmlns:xlink="http://www.w3.org/1999/xlink" x="0" y="0"><path id="Vector_2" d="M2,1c0,-0.553 -0.447,-1 -1,-1c-0.553,0 -1,0.447 -1,1v10.5c0,1.381 1.119,2.5 2.5,2.5h12.5c0.553,0 1,-0.447 1,-1c0,-0.553 -0.447,-1 -1,-1h-12.5c-0.275,0 -0.5,-0.225 -0.5,-0.5zM14.706,3.706c0.391,-0.39 0.391,-1.025 0,-1.415l-1.025,-0.391l-0.39,0.391l-3.291,3.293l-1.794,-1.793c-0.39,-0.391 -1.025,-0.391 -1.415,0l-3.5,3.5c-0.391,0.39 -0.391,1.025 0,1.415l1.025,0.391l0.39,-0.391l2.794,-2.79l1.794,1.793c0.39,0.391 1.025,0.391 1.415,0l4,-4z" fill="currentColor"/></svg>