<svg viewBox="0 0 15.9999 12.9949" fill="none" xmlns="http://www.w3.org/2000/svg" xmlns:xlink="http://www.w3.org/1999/xlink" x="0" y="0"><path id="Vector_12" d="M14.355,3.2373c0.01,0.14 0.01,0.29 0.01,0.43c0,4.33 -3.299,9.33 -9.329,9.33c-1.858,0 -3.584,-0.54 -5.036,-1.47c0.264,0.03 0.518,0.04 0.792,0.04c1.533,0 2.944,-0.52 4.071,-1.4c-1.442,-0.04 -2.65,-0.98 -3.066,-2.28c0.203,0.03 0.406,0.05 0.619,0.05c0.295,0 0.589,-0.04 0.863,-0.11c-1.502,-0.3 -2.629,-1.62 -2.629,-3.22v-0.04c0.436,0.24 0.944,0.4 1.482,0.42c-0.883,-0.59 -1.462,-1.6 -1.462,-2.73c0,-0.61 0.162,-1.17 0.447,-1.66c1.614,1.99 4.04,3.29 6.761,3.43c-0.051,-0.24 -0.081,-0.49 -0.081,-0.75c0,-1.81 1.462,-3.28 3.279,-3.28c0.944,0 1.797,0.4 2.396,1.04c0.741,-0.14 1.452,-0.42 2.081,-0.79c-0.243,0.76 -0.761,1.4 -1.441,1.8c0.66,-0.07 1.299,-0.25 1.888,-0.5c-0.447,0.65 -1.005,1.22 -1.645,1.69z" fill="currentColor"/></svg>