<svg viewBox="0 0 24 24" fill="none" xmlns="http://www.w3.org/2000/svg" x="0" y="0"><path id="Vector_21" d="M6.75,0.75c0,-0.41 -0.338,-0.75 -0.75,-0.75c-0.413,0 -0.75,0.34 -0.75,0.75v0.75h-0.75c-0.413,0 -0.75,0.34 -0.75,0.75c0,0.41 0.337,0.75 0.75,0.75h0.75v1.5h-2.428c-0.52,0 -0.947,0.43 -0.947,0.95c0,0.11 0.023,0.23 0.061,0.34l1.523,3.96h-0.084c-0.623,0 -1.125,0.5 -1.125,1.12c0,0.63 0.502,1.13 1.125,1.13h0.187l-0.75,6h6.375l-0.75,-6h0.188c0.623,0 1.125,-0.5 1.125,-1.13c0,-0.62 -0.502,-1.12 -1.125,-1.12h-0.084l1.523,-3.96c0.042,-0.11 0.061,-0.23 0.061,-0.34c0,-0.53 -0.427,-0.95 -0.947,-0.95h-2.428v-1.5h0.75c0.412,0 0.75,-0.34 0.75,-0.75c0,-0.41 -0.338,-0.75 -0.75,-0.75h-0.75zM2.25,19.5l-2.025,2.7c-0.145,0.2 -0.225,0.43 -0.225,0.67c0,0.63 0.502,1.13 1.125,1.13h9.75c0.623,0 1.125,-0.5 1.125,-1.13c0,-0.24 -0.08,-0.47 -0.225,-0.67l-2.025,-2.7zM15.75,19.5l-2.025,2.7c-0.145,0.2 -0.225,0.43 -0.225,0.67c0,0.63 0.502,1.13 1.125,1.13h8.25c0.623,0 1.125,-0.5 1.125,-1.13c0,-0.24 -0.08,-0.47 -0.225,-0.67l-2.025,-2.7zM14.25,9.75v2.43c0,0.37 0.131,0.72 0.375,0.99l1.275,1.46l-0.103,3.37h5.883l-0.155,-3.37l1.327,-1.45c0.253,-0.28 0.398,-0.64 0.398,-1.02v-2.41c0,-0.41 -0.338,-0.75 -0.75,-0.75h-0.75c-0.413,0 -0.75,0.34 -0.75,0.75v0.75h-1.125v-0.75c0,-0.41 -0.338,-0.75 -0.75,-0.75h-0.75c-0.413,0 -0.75,0.34 -0.75,0.75v0.75h-1.125v-0.75c0,-0.41 -0.338,-0.75 -0.75,-0.75h-0.75c-0.413,0 -0.75,0.34 -0.75,0.75zM18,14.25c0,-0.41 0.337,-0.75 0.75,-0.75l0.75,0.34v0.41v1.5h-1.5z" fill="currentColor"/></svg>