<svg viewBox="0 0 17.5 20" fill="none" xmlns="http://www.w3.org/2000/svg" xmlns:xlink="http://www.w3.org/1999/xlink" x="0" y="0"><path id="Vector_6" d="M8.7503,10c-2.76,0 -5,-2.24 -5,-5c0,-2.76 2.24,-5 5,-5c2.759,0 5,2.24 5,5c0,2.76 -2.241,5 -5,5zM8.1683,14.03l-0.727,-1.21c-0.25,-0.42 0.051,-0.94 0.535,-0.94h0.774h0.769c0.485,0 0.785,0.53 0.535,0.94l-0.726,1.21l1.304,4.84l1.407,-5.74c0.078,-0.31 0.383,-0.52 0.699,-0.44c2.738,0.69 4.762,3.17 4.762,6.11c0,0.66 -0.539,1.2 -1.2,1.2h-5.148c-0.082,0 -0.156,-0.02 -0.227,-0.04l0.012,0.04h-4.375l0.012,-0.04c-0.07,0.02 -0.149,0.04 -0.227,0.04h-5.148c-0.66,0 -1.199,-0.54 -1.199,-1.2c0,-2.95 2.027,-5.42 4.761,-6.11c0.317,-0.08 0.621,0.13 0.7,0.44l1.406,5.74l1.305,-4.84z" fill="currentColor"/></svg>